<svg xmlns="http://www.w3.org/2000/svg" width="36" height="36" viewBox="0 0 36 36">
    <g fill="none" fill-rule="evenodd">
        <path fill="#C8C8C8" fill-rule="nonzero" d="M18.506 21.54c.23 0 .429-.063.598-.192.168-.128.26-.354.273-.678l.243-9.558c.014-.351-.084-.6-.294-.75-.209-.148-.482-.222-.82-.222-.337 0-.607.074-.81.223-.202.148-.304.398-.304.749l.264 9.558c0 .324.084.55.253.678.169.129.368.193.597.193zm0 4.314c.378 0 .695-.128.952-.385.257-.256.385-.574.385-.952 0-.377-.128-.691-.385-.941-.256-.25-.574-.375-.952-.375s-.695.125-.951.375c-.257.25-.385.564-.385.941 0 .378.128.696.384.952.257.257.574.385.952.385z"/>
        <circle cx="18" cy="18" r="17.25" stroke="#DBDBDB" stroke-width="1.5"/>
    </g>
</svg>
