<svg width="72" height="17" viewBox="0 0 72 17" fill="none" xmlns="http://www.w3.org/2000/svg">
    <path d="M1.49744 12.8962H0V0.324246L1.49744 0V12.8962ZM5.50041 3.75831L6.67948 4.6043L3.79959 8.21818L7.13638 12.2212L5.98088 13.1055L2.04276 8.28892L5.50041 3.75831Z" fill="black"/>
    <path d="M8.25064 10.5116C8.22597 10.1207 8.29494 9.72953 8.45182 9.37065C8.6087 9.01178 8.84896 8.69552 9.15264 8.44816C9.75397 7.97653 10.6294 7.74071 11.779 7.74071H13.5064V7.17181C13.5064 5.79622 12.8982 5.10842 11.6818 5.10842C11.2678 5.1111 10.8559 5.16556 10.4555 5.27055C10.0514 5.37141 9.65681 5.50752 9.27643 5.67733L8.83723 4.6191C9.29097 4.36269 9.77528 4.16461 10.2787 4.02956C10.7689 3.89731 11.2742 3.82894 11.782 3.82617C13.8866 3.82617 14.939 4.94925 14.939 7.19539V12.8962H13.8336L13.6538 11.9206C13.2247 12.2684 12.7445 12.5478 12.23 12.7489C11.7732 12.9363 11.2853 13.0363 10.7916 13.0436C10.4506 13.0744 10.107 13.0298 9.78509 12.9132C9.46321 12.7965 9.17088 12.6105 8.92879 12.3684C8.68669 12.1263 8.50073 11.834 8.38406 11.5121C8.26738 11.1902 8.22284 10.8467 8.25358 10.5057L8.25064 10.5116ZM11.048 11.8439C11.2646 11.8427 11.4803 11.816 11.6906 11.7643C11.9167 11.707 12.1392 11.6362 12.3568 11.5521C12.5763 11.4674 12.7866 11.3608 12.9846 11.2337C13.1701 11.1169 13.3447 10.9837 13.5064 10.8358V8.75178H11.9441C11.1581 8.75178 10.5803 8.88737 10.2109 9.15856C10.0222 9.31221 9.87393 9.50959 9.7789 9.73356C9.68386 9.95754 9.64495 10.2013 9.66553 10.4438C9.66553 11.3792 10.1234 11.8459 11.0392 11.8439H11.048Z" fill="black"/>
    <path d="M19.3781 12.8962H17.8806V0.324246L19.3781 0V12.8962ZM23.381 3.75831L24.5601 4.6043L21.6802 8.21818L25.014 12.2212L23.8585 13.1055L19.9204 8.28892L23.381 3.75831Z" fill="black"/>
    <path d="M26.1313 10.5116C26.1067 10.1207 26.1756 9.72953 26.3325 9.37065C26.4894 9.01178 26.7296 8.69552 27.0333 8.44816C27.6386 7.97653 28.515 7.74071 29.6627 7.74071H31.3782V7.17181C31.3782 5.79622 30.771 5.10842 29.5565 5.10842C29.1417 5.11091 28.7287 5.16538 28.3274 5.27055C27.9231 5.37116 27.5286 5.50728 27.1483 5.67733L26.7091 4.6191C27.162 4.36323 27.6453 4.16517 28.1475 4.02956C28.6388 3.89706 29.1451 3.82869 29.6538 3.82617C31.7585 3.82617 32.8108 4.94925 32.8108 7.19539V12.8962H31.7054L31.5256 11.9206C31.0965 12.2684 30.6163 12.5478 30.1019 12.7489C29.6441 12.9366 29.1551 13.0366 28.6604 13.0436C28.3194 13.0744 27.9759 13.0298 27.654 12.9132C27.3321 12.7965 27.0398 12.6105 26.7977 12.3684C26.5556 12.1263 26.3696 11.834 26.253 11.5121C26.1363 11.1902 26.0917 10.8467 26.1225 10.5057L26.1313 10.5116ZM28.9316 11.8439C29.1482 11.8424 29.3638 11.8157 29.5742 11.7643C29.8002 11.7066 30.0227 11.6357 30.2404 11.5521C30.4587 11.4668 30.668 11.3602 30.8653 11.2337C31.0488 11.117 31.2206 10.9827 31.3782 10.8329V8.74883H29.8159C29.0299 8.74883 28.4521 8.88442 28.0827 9.15561C27.8946 9.30976 27.7468 9.50722 27.6518 9.73107C27.5568 9.95491 27.5176 10.1985 27.5374 10.4408C27.5433 11.3782 28.008 11.8459 28.9316 11.8439Z" fill="black"/>
    <path d="M39.2132 3.85591C40.4513 3.85591 41.422 4.2568 42.1256 5.05857C42.8291 5.86035 43.1818 7.01093 43.1838 8.51033C43.1838 9.98417 42.834 11.1171 42.1344 11.909C41.4348 12.701 40.4611 13.094 39.2132 13.0881C37.9772 13.0881 37.0064 12.6951 36.3009 11.909C35.5954 11.123 35.2427 9.99007 35.2427 8.51033C35.2427 7.01289 35.5984 5.86231 36.3097 5.05857C36.6749 4.65611 37.1246 4.33953 37.6266 4.13159C38.1286 3.92364 38.6705 3.8295 39.2132 3.85591V3.85591ZM39.2132 5.05857C38.8633 5.04274 38.5151 5.11548 38.2007 5.27007C37.8864 5.42465 37.6162 5.65607 37.4151 5.94288C36.9985 6.53242 36.7902 7.3902 36.7902 8.51622C36.7902 9.64224 36.9985 10.4853 37.4151 11.0453C37.6344 11.3125 37.9102 11.5278 38.2227 11.6755C38.5351 11.8233 38.8764 11.9 39.2221 11.9C39.5677 11.9 39.909 11.8233 40.2215 11.6755C40.5339 11.5278 40.8097 11.3125 41.029 11.0453C41.4437 10.4774 41.652 9.63438 41.6539 8.51622C41.6559 7.39806 41.4476 6.54028 41.029 5.94288C40.8251 5.65466 40.5519 5.42252 40.2345 5.26795C39.9171 5.11337 39.5658 5.04136 39.2132 5.05857V5.05857Z" fill="black"/>
    <path d="M47.7735 12.9847V16.3186H45.3977V4.01782H47.0749L47.3697 4.79896C47.6925 4.46123 48.0818 4.19412 48.5131 4.01451C48.9443 3.8349 49.4082 3.7467 49.8753 3.75548C52.2039 3.75548 53.3093 5.49757 53.2916 8.31262C53.2916 11.2603 51.5849 13.1468 49.1442 13.1468C48.6822 13.1536 48.2213 13.0991 47.7735 12.9847ZM47.7735 6.00162V11.3252C48.027 11.3542 48.2819 11.3699 48.537 11.3723C50.2319 11.3723 50.8952 10.1932 50.8952 8.31262C50.8952 6.67075 50.456 5.67737 49.1059 5.67737C48.6431 5.68438 48.1878 5.79519 47.7735 6.00162V6.00162Z" fill="black"/>
    <path d="M58.4646 7.48395H59.8146V7.18918C59.8146 6.21349 59.2604 5.7566 58.2995 5.7566C57.4533 5.77766 56.6213 5.97863 55.8588 6.34613L55.2074 4.75143C56.1932 4.11544 57.3387 3.77107 58.5117 3.75806C60.7903 3.75806 62.0283 4.96366 62.0283 7.25697V12.8959H60.3511L60.1064 12.1472C59.1455 12.8458 58.2671 13.1406 57.4712 13.1406C55.7291 13.1406 54.7534 12.1 54.7534 10.3403C54.7534 8.47437 56.0563 7.48395 58.4646 7.48395ZM59.8146 10.6232V8.99612H58.724C57.5036 8.99612 56.8846 9.43532 56.8846 10.3137C56.8846 10.9829 57.2265 11.3071 57.9251 11.3071C58.6111 11.2832 59.2722 11.0439 59.8146 10.6232V10.6232Z" fill="black"/>
    <path d="M69.2203 11.9914C68.389 14.2052 67.3957 15.8235 65.9483 16.7078L64.4745 15.3577C65.277 14.6865 65.9451 13.8693 66.4435 12.9494L63.2954 4.34806L65.6536 3.71431L67.6698 10.6945L69.6713 3.68188L72 4.33332L69.2203 11.9914Z" fill="black"/>
</svg>
