<svg width="16" height="16" viewBox="0 0 16 16" fill="none" xmlns="http://www.w3.org/2000/svg">
    <path d="M7.47174 14.5805C3.57983 8.93836 2.85742 8.3593 2.85742 6.28574C2.85742 3.44541 5.15995 1.14288 8.00028 1.14288C10.8406 1.14288 13.1431 3.44541 13.1431 6.28574C13.1431 8.3593 12.4207 8.93836 8.52882 14.5805C8.27341 14.9494 7.72712 14.9494 7.47174 14.5805ZM8.00028 8.4286C9.18375 8.4286 10.1431 7.46921 10.1431 6.28574C10.1431 5.10227 9.18375 4.14288 8.00028 4.14288C6.81681 4.14288 5.85742 5.10227 5.85742 6.28574C5.85742 7.46921 6.81681 8.4286 8.00028 8.4286Z" fill="#FF3D00"/>
</svg>
